<?xml version="1.0" encoding="UTF-8" standalone="no"?>
<!-- Created with Inkscape (http://www.inkscape.org/) -->

<svg
   xmlns:dc="http://purl.org/dc/elements/1.1/"
   xmlns:cc="http://creativecommons.org/ns#"
   xmlns:rdf="http://www.w3.org/1999/02/22-rdf-syntax-ns#"
   xmlns:svg="http://www.w3.org/2000/svg"
   xmlns="http://www.w3.org/2000/svg"
   xmlns:xlink="http://www.w3.org/1999/xlink"
   xmlns:sodipodi="http://sodipodi.sourceforge.net/DTD/sodipodi-0.dtd"
   xmlns:inkscape="http://www.inkscape.org/namespaces/inkscape"
   version="1.0"
   width="550.00031"
   height="549.95496"
   id="svg2403"
   xml:space="preserve"
   sodipodi:version="0.32"
   inkscape:version="0.47 r22583"
   sodipodi:docname="poster_presentation_de.svg"
   inkscape:output_extension="org.inkscape.output.svg.inkscape"><metadata
   id="metadata1486"><rdf:RDF><cc:Work
       rdf:about=""><dc:format>image/svg+xml</dc:format><dc:type
         rdf:resource="http://purl.org/dc/dcmitype/StillImage" /><dc:title /></cc:Work></rdf:RDF></metadata><sodipodi:namedview
   inkscape:window-height="848"
   inkscape:window-width="618"
   inkscape:pageshadow="2"
   inkscape:pageopacity="0.0"
   guidetolerance="10.0"
   gridtolerance="10.0"
   objecttolerance="10.0"
   borderopacity="1.0"
   bordercolor="#666666"
   pagecolor="#ffffff"
   id="base"
   showgrid="false"
   inkscape:zoom="2.56"
   inkscape:cx="215.77527"
   inkscape:cy="197.11847"
   inkscape:window-x="793"
   inkscape:window-y="24"
   inkscape:current-layer="svg2403"
   showguides="true"
   inkscape:guide-bbox="true"
   inkscape:window-maximized="0" /><defs
   id="defs2406"><inkscape:perspective
     sodipodi:type="inkscape:persp3d"
     inkscape:vp_x="0 : 274.97748 : 1"
     inkscape:vp_y="0 : 1000 : 0"
     inkscape:vp_z="550.00031 : 274.97748 : 1"
     inkscape:persp3d-origin="275.00015 : 183.31832 : 1"
     id="perspective2900" /><linearGradient
     id="linearGradient4609"><stop
       id="stop4611"
       style="stop-color: rgb(0, 0, 0); stop-opacity: 0;"
       offset="0" /><stop
       id="stop4623"
       style="stop-color: rgb(0, 0, 0); stop-opacity: 0.0235294;"
       offset="0.49269524" /><stop
       id="stop4621"
       style="stop-color: rgb(0, 0, 0); stop-opacity: 0.0352941;"
       offset="0.5708732" /><stop
       id="stop4619"
       style="stop-color: rgb(0, 0, 0); stop-opacity: 0.0666667;"
       offset="0.63645512" /><stop
       id="stop4617"
       style="stop-color: rgb(0, 0, 0); stop-opacity: 0.148936;"
       offset="0.69579047" /><stop
       id="stop4625"
       style="stop-color: rgb(0, 0, 0); stop-opacity: 0.212766;"
       offset="0.73030394" /><stop
       id="stop4613"
       style="stop-color: rgb(0, 0, 0); stop-opacity: 0.546099;"
       offset="1" /></linearGradient><inkscape:perspective
     id="perspective2867"
     inkscape:persp3d-origin="0.5 : 0.33333333 : 1"
     inkscape:vp_z="1 : 0.5 : 1"
     inkscape:vp_y="0 : 1000 : 0"
     inkscape:vp_x="0 : 0.5 : 1"
     sodipodi:type="inkscape:persp3d" /><radialGradient
     inkscape:collect="always"
     xlink:href="#linearGradient4609-2"
     id="radialGradient4464"
     gradientUnits="userSpaceOnUse"
     gradientTransform="matrix(-3.09764,7.93967,-7.19142,-2.80618,1577.09,-235.887)"
     cx="99.957603"
     cy="139.3748"
     fx="99.957603"
     fy="139.3748"
     r="45.070099" /><linearGradient
     id="linearGradient4609-2"><stop
       id="stop4611-6"
       style="stop-color: rgb(0, 0, 0); stop-opacity: 0;"
       offset="0" /><stop
       id="stop4623-5"
       style="stop-color: rgb(0, 0, 0); stop-opacity: 0.0235294;"
       offset="0.49269524" /><stop
       id="stop4621-2"
       style="stop-color: rgb(0, 0, 0); stop-opacity: 0.0352941;"
       offset="0.5708732" /><stop
       id="stop4619-6"
       style="stop-color: rgb(0, 0, 0); stop-opacity: 0.0666667;"
       offset="0.63645512" /><stop
       id="stop4617-5"
       style="stop-color: rgb(0, 0, 0); stop-opacity: 0.148936;"
       offset="0.69579047" /><stop
       id="stop4625-8"
       style="stop-color: rgb(0, 0, 0); stop-opacity: 0.212766;"
       offset="0.73030394" /><stop
       id="stop4613-7"
       style="stop-color: rgb(0, 0, 0); stop-opacity: 0.546099;"
       offset="1" /></linearGradient><radialGradient
     r="45.070099"
     fy="139.3748"
     fx="99.957603"
     cy="139.3748"
     cx="99.957603"
     gradientTransform="matrix(-3.09764,7.93967,-7.19142,-2.80618,1577.418,-236.36266)"
     gradientUnits="userSpaceOnUse"
     id="radialGradient2881"
     xlink:href="#linearGradient4609-2"
     inkscape:collect="always" /></defs><path
   style="fill: rgb(255, 255, 255); fill-opacity: 1; fill-rule: nonzero; stroke: none;"
   d="M 549.19408,274.99731 C 549.61658,195.003 512.71045,115.8339 451.08749,64.768864 389.78237,12.981364 304.80568,-9.8441771 225.92978,5.3564847 141.91165,19.776613 66.717002,76.505757 29.412143,153.12574 -5.2878009,221.97618 -8.6520706,305.67517 20.576207,377.06473 c 30.519311,78.02428 99.268233,139.71192 180.065243,161.78421 77.74024,22.60221 165.11781,7.72076 231.25126,-38.9986 66.60298,-45.83858 110.7138,-122.80351 116.38735,-203.52551 0.71961,-6.53188 0.90726,-13.18257 0.91402,-19.80412"
   id="path5137" /><path
   style="opacity:0.25941401;fill:url(#radialGradient2881);fill-opacity:1;fill-rule:evenodd;stroke:none"
   id="path11943"
   d="M 543.79226,333.85242 C 511.02618,482.06537 364.26846,575.64359 215.99977,542.86515 67.731108,510.08672 -25.90217,363.3642 6.86397,215.15122 39.63023,66.93829 186.38793,-26.639923 334.65662,6.138506 482.92528,38.916937 576.55845,185.63945 543.79226,333.85242 l 0,0 z" /><path
   style="fill: rgb(52, 103, 51); fill-opacity: 1; fill-rule: nonzero; stroke: none;"
   d="m 246.80672,107.68567 -7.01838,2.14718 -5.44806,-1.2178 -4.29435,1.8267 -5.15963,-1.2178 -10.99226,1.8267 -4.55073,2.4356 -3.33293,0.6089 -4.58278,2.4356 -3.0445,0 -0.32048,-1.50622 -6.37743,0.92937 -2.14718,-2.78812 -1.8267,0.6089 -4.8712,7.01838 -10.67179,5.80058 -3.33293,4.58277 -0.92937,5.44806 -0.32048,0.32047 -2.4356,3.0445 -6.08901,4.26231 -5.44806,1.24985 -3.97387,5.4801 -3.65341,2.11513 -3.0445,6.37743 -4.23026,3.42908 -6.44153,9.38988 -1.50622,4.26231 0.86528,-1.50623 1.85874,4.23026 -2.11512,3.97388 0.57685,7.33885 -3.6534,9.42194 -4.26231,4.29435 3.36498,3.90978 -0.32048,2.46765 3.68546,-0.6089 -3.04451,1.2178 -1.24985,-0.89732 -0.92937,3.94183 2.17922,0 -2.17922,0.89733 3.0445,0.32047 -1.50623,1.2178 1.82671,0.32047 -0.6089,1.18576 4.2623,-1.18576 -2.4356,0.92938 1.8267,0.86528 -2.11513,1.24985 0.92938,1.50623 1.18575,-0.57686 -0.57685,1.18576 1.50622,-0.92938 0.6089,4.29435 1.82671,0.89733 1.8267,0.92938 -0.92938,1.50622 1.53828,0.6089 0.28843,3.97388 1.53827,-0.28842 -2.11513,0.6089 3.33293,3.33293 -0.28842,1.8267 5.15963,2.72403 10.06288,9.45398 5.19168,2.14718 6.08901,-3.04451 9.45398,-1.2178 8.81304,2.43561 9.13351,-4.26231 6.40948,-2.46765 11.28068,-2.40355 -1.85874,1.2178 4.58277,0.32047 3.04451,2.72403 1.53827,-0.92937 -1.53827,1.24984 2.14717,0.28843 -1.53827,0.28843 0.64095,0.92937 1.50622,-0.92937 -1.50622,1.8267 3.0445,4.29435 3.33293,-0.32047 0,-1.2178 0.6089,1.2178 -0.28843,-1.53828 0.89733,1.53828 0.6089,-1.8267 1.2178,1.2178 4.29435,-0.32048 -0.32047,-1.79465 1.50623,2.11513 1.53827,-1.2178 1.50623,3.6534 2.46765,-0.6089 0.57685,1.2178 -1.18575,0 1.79466,3.6534 -3.04451,9.13351 1.85875,0.32048 -0.32047,3.0445 -1.53828,-0.32047 3.04451,1.53827 -2.11513,0.6089 -0.92938,-1.2178 -0.92937,4.87121 -2.11513,0 4.58278,8.23618 10.06288,9.74241 2.11513,6.08901 2.4356,1.2178 -2.11513,0.6089 5.48011,10.96021 -1.8267,3.0445 2.11513,4.29436 2.11513,4.83915 -0.86528,5.83263 -5.22373,5.44806 -3.33293,11.31273 0.6089,9.74241 12.49849,20.38215 2.14717,16.44032 9.74241,15.57504 4.23026,6.98633 0.32048,3.33293 -1.82671,1.24985 2.14718,5.76853 1.53827,-0.89732 4.55074,3.0445 10.35131,-3.33293 8.84508,0.89733 8.84508,-2.43561 13.10739,-9.13351 4.26231,-5.4801 1.8267,-2.14718 4.83916,-3.97388 3.97387,-10.31926 -0.6089,0.86528 -1.2178,-1.50623 13.42786,-7.91571 1.18576,-8.52461 -2.72403,-7.3068 0.28843,-3.97388 0.92937,0.92937 6.69791,-4.58278 2.75607,-4.55073 13.71629,-6.40948 0.6089,-1.2178 4.23026,-6.08901 -0.86528,-8.84508 0.86528,-0.92937 -0.6089,-6.69791 1.53827,-3.0445 -2.72402,-2.11513 -1.24985,-0.92938 0,-0.28842 -1.18576,-7.94776 0.89733,-2.11513 -1.2178,0 1.8267,-3.97388 -3.36498,-4.55073 2.14718,-6.40948 3.6534,-7.62728 0.92938,-1.8267 3.6534,-2.11513 -0.92937,-1.50623 2.46765,0 9.74241,-12.85101 10.31926,-8.20413 7.62728,-9.74241 10.06289,-23.4587 0,-2.75608 -0.28843,-1.53827 2.11513,-0.57686 -1.50623,0 0.28843,-6.37743 -2.14718,-0.92938 -4.83915,3.04451 -8.26823,0.92937 -3.62136,2.11513 -2.75608,-0.92937 -4.8712,2.4356 -6.37744,-5.80058 -2.75607,0.32047 3.6534,-2.11513 -0.6089,-2.14717 -10.06288,-10.06289 -4.26231,-1.50622 -0.92937,-1.53828 -0.89733,-0.89733 -0.28843,1.82671 -6.40948,-13.71629 -5.51215,-3.68545 -2.40356,-10.31927 0.89733,0.57685 -2.40355,-4.55073 -5.51216,-3.97387 -1.50623,-4.26231 1.18576,0 -3.04451,-2.4356 -8.20413,-14.32519 -4.58278,-4.87121 -1.08961,-3.6534 c -0.0121,-0.0186 -0.0206,-0.0449 -0.032,-0.0641 -0.0616,-0.10344 -0.12835,-0.225 -0.16023,-0.35253 -0.20906,-0.83622 -0.70505,-1.71627 -0.70505,-2.78812 -10e-6,-0.15107 0,-0.2976 0,-0.44866 0,-0.45866 -0.0577,-0.9373 -0.12819,-1.41009 l -1.53827,0.22433 -0.89733,-1.85875 -3.6534,-0.32047 -7.33886,3.0445 -8.49256,-2.40355 -7.33886,-0.32048 -1.2178,-1.82669 -6.6979,-0.89733 -0.92938,-1.85875 -5.4801,-1.18575 -6.40949,3.0445 0,5.44805 -0.28842,0 -4.29435,2.17923 -4.55074,-2.46765 -8.5246,-2.11513 -2.14718,-3.97387 -7.30681,-2.11513 -4.23026,0.28843 -8.26823,-3.65341 -0.6089,-1.85875 4.90326,-3.90978 -2.43561,-3.68545 2.43561,-3.6534 -2.43561,1.50622 -2.46765,-2.4356 z m -108.09589,55.21767 0.25638,-0.38457 -0.92937,0.92937 0.67299,-0.5448 z m 50.47466,-50.09009 0.0641,0.0961 0.16023,-0.0961 c -0.0745,0.004 -0.14959,-0.003 -0.22433,0 z m -35.89309,27.49667 -2.14718,1.53827 1.53828,-0.64095 0.6089,-0.89732 z m -2.14718,1.8267 -3.0445,3.0445 1.8267,-0.6089 1.2178,-2.4356 z m -8.20413,0.89733 -3.0445,0.92937 0.28842,1.53828 2.75608,-2.46765 z m 0.89733,1.53827 -0.6089,1.2178 1.50622,-0.28842 -0.89732,-0.92938 z m 198.95027,17.94655 1.53828,4.90325 -4.2623,0.92937 -3.97388,5.15964 2.4356,-4.87121 3.6534,-0.89733 0.6089,-5.22372 z m -205.03928,32.91268 3.0445,2.46765 2.14718,4.55073 -5.19168,-6.69791 -6.98633,0.28843 6.98633,-0.6089 z m 239.49024,3.6534 0.28843,1.24985 1.8267,0.28843 -1.8267,-1.53828 -0.28843,0 z m -198.98232,0.92938 1.53827,1.8267 -1.2178,0.28843 -0.32047,-2.11513 z m 80.47103,7.94775 0.86528,3.04451 1.85875,-0.92938 0,1.50623 4.2623,0.6089 -5.48011,2.75608 -3.36497,-6.40948 1.85875,-0.57686 z m 109.34574,7.59524 -0.57686,3.33293 -1.53827,-2.40356 2.11513,-0.92937 z m -153.53911,4.58278 2.72403,2.11513 -0.89733,4.2623 0,0.64095 -0.28843,-0.64095 -0.92937,-1.8267 1.79465,-2.4356 -2.40355,-2.11513 z m -24.35603,10.67178 4.83916,5.76854 0.32047,0.6089 0.92938,-5.80058 -1.24985,13.39581 0,-1.50623 -0.28843,-0.28842 -3.36498,-1.53828 3.04451,0.92938 0.32047,-0.64095 0.6089,-2.40356 -0.6089,-0.92937 -0.92937,-0.32048 -2.11513,0 2.72403,-0.89732 -3.04451,-1.53828 -0.6089,-2.72403 -3.36497,0 3.07655,-0.32047 -0.28843,-1.79466 z m 34.09844,2.11513 1.8267,3.97388 -1.8267,11.24864 1.53827,-11.56911 -1.53827,-3.65341 z m -53.61531,2.4356 -1.2178,3.33293 0.6089,0.92938 1.18576,-0.92938 -0.57686,2.43561 -1.8267,-2.11513 1.8267,-3.65341 z m 193.47018,16.44032 2.11512,10.99226 -3.6534,-6.08901 1.53828,-4.90325 z m -128.25371,4.29435 -2.46765,1.79466 0,0.32047 1.2178,0.6089 1.24985,-2.72403 z m 44.16132,6.37744 -2.14718,13.71629 3.36498,-7.01839 3.97388,-2.11512 3.33293,-1.82671 0.89733,-0.64094 9.99879,-0.80119 0.38456,-0.0641 0.0641,0.032 0.54481,-0.032 10.06288,6.95428 -10.60769,-6.92224 -0.44866,0.032 -10.89612,2.33946 -3.33293,0.92937 -4.29435,3.04451 0.32047,3.94183 -10.67178,10.35131 -0.32048,4.29435 -0.28843,-3.97388 7.62729,-8.52461 2.4356,-13.71628 z m 62.74881,0.32047 -0.92937,3.33293 -3.33293,3.0445 -0.32047,-2.11512 4.58277,-4.26231 z m 9.45399,3.33293 -1.8267,0.64095 0.6089,1.50623 -3.04451,-0.92938 4.26231,-1.2178 z m -0.6089,5.48011 0.6089,1.53827 2.14717,-0.28842 1.18576,3.0445 2.17922,-1.24985 0.57686,0.92938 -3.65341,1.2178 -0.28843,4.55073 -3.6534,2.4356 3.0445,0.92937 -2.14717,1.53828 -2.14718,-0.6089 0.32048,2.11513 -1.21781,0.92937 0.28843,-2.4356 -2.72403,-1.2178 -1.8267,2.72403 -0.92937,-3.97388 1.8267,-9.42194 3.0445,-1.50622 1.53828,0.89732 1.8267,-2.14717 z m -16.15189,3.0445 -2.43561,2.4356 0.6089,-2.11513 1.82671,-0.32047 z m -94.76417,3.36498 1.53827,0.6089 -1.53827,0.92937 0,-1.53827 z m 40.86043,3.6534 -1.24984,1.85875 1.53827,0.57685 -1.8267,2.75608 -0.64095,-4.58278 2.17922,-0.6089 z m 49.96191,0 1.50622,2.11513 -2.4356,2.14718 0.92938,-4.26231 z m 1.18575,8.52461 2.75608,11.60116 -1.2178,2.11513 3.94183,3.33293 2.46765,8.55666 -3.04451,-1.21781 -1.53827,-5.80058 -4.26231,-5.4801 0.28843,-9.77446 -0.89733,1.24985 1.50623,-4.58278 z m 45.0907,11.28069 -0.57686,2.11513 1.50623,1.53827 -0.6089,-2.4356 -0.32047,-1.2178 z m -33.48954,8.81303 2.75608,2.46765 -2.75608,-0.6089 0,-1.85875 z m -10.35131,4.29435 1.79465,0.28843 -3.0445,1.8267 1.24985,-2.11513 z m -2.75608,0.60891 -2.14717,3.97387 -1.79466,0.28843 0.28843,-2.14718 3.6534,-2.11512 z m 22.2409,4.2623 2.11513,2.14718 1.53827,6.98633 -1.53827,4.55073 1.85875,9.16556 -2.75608,-1.2178 -2.14717,-8.81304 1.85874,-2.75608 -1.2178,-7.9157 -0.32047,-1.24985 0.32047,0 0.28843,-0.89733 z m -19.19639,6.40948 0.32047,0 0,1.8267 -1.53828,0.6089 1.21781,-2.4356 z m 59.41588,2.4356 -0.6089,1.50623 0.89733,0.92938 -0.28843,-2.43561 z m 24.0676,2.72403 -2.4356,2.11513 -0.32048,4.29435 -2.40355,2.11513 -1.24985,-0.89733 0,3.04451 -0.92937,0 -1.79466,3.6534 0.28843,-1.8267 -2.11513,2.4356 0.57685,1.2178 -1.18575,0.6089 0.32047,-1.8267 -2.17922,1.53828 0,2.11513 -1.18576,-1.2178 -7.3068,2.14717 -3.04451,6.08901 0.6089,11.28068 -4.90325,5.76854 -1.79465,4.58277 0.6089,11.88959 3.33293,1.79466 8.52461,-2.11513 14.93409,-30.15661 0.89732,-4.55073 1.85875,-1.53828 0,-6.089 1.18576,-0.32048 0.64095,2.43561 1.50622,-2.43561 -0.6089,-11.24863 -2.4356,-3.36498 0.6089,-1.53828 z m -19.80529,0.32048 -0.89733,0.6089 1.18575,0.89732 -0.28842,-1.50622 z m -68.86987,21.02309 -4.23026,1.2178 -5.19168,5.19168 3.94183,-5.19168 5.48011,-1.2178 z m 113.06323,15.54299 -1.24984,2.43561 1.53827,-1.24985 -0.28843,-1.18576 z m -7.62728,3.97388 -1.50623,0.57685 1.50623,1.53828 0,-2.11513 z m -120.65847,28.29786 -0.92938,1.8267 -1.63441,-0.51276 -0.0641,0 1.08961,0.83323 -1.50622,-0.6089 0.41661,-0.22433 -0.0961,-0.0641 0.16024,0.0641 2.56379,-1.31394 z"
   id="path14267" /><path
   id="path12284"
   style="fill: none; stroke: rgb(255, 255, 255); stroke-width: 0.598459; stroke-miterlimit: 4; stroke-opacity: 1; stroke-dasharray: none; display: inline;"
   d="m 390.43391,214.51205 -11.78232,-9.07135 -7.00286,-0.32769 -2.32577,-1.62414 -1.22886,3.617 -4.40535,-0.64319 m 67.15494,-52.84219 1.21872,1.82807 m -35.95211,36.56147 7.92165,3.35147 0.60936,4.87486 7.92165,-12.18716 21.32752,-7.92165 0.30468,-8.83568 -2.43743,-3.04679 -11.5778,-1.21872 -7.92165,-10.96844 m -0.91404,-7.31229 -6.39825,-6.39826 m 11.27311,-56.974951 6.39826,-0.914037 4.26551,3.046789 0.30467,-0.609358 1.21872,2.132752 m 13.10119,18.585415 -1.21871,-2.43743 -15.23395,-7.616976 m -52.70945,-4.570183 -4.87486,0.609358 m -2.74211,-6.398257 -9.44504,-2.132752 -1.82808,0.609358 m 22.24156,5.179541 -5.17954,-2.74211 -3.35147,0.304679 -2.43743,-1.218716 m 28.9445,-36.256788 2.13275,-0.609358 m -92.01303,-3.046788 -0.60935,0 m 1.82807,-0.914037 -1.21872,0.914037 m -0.60935,0 -1.82808,0.304678 m 0,0 0.91404,0.914037 -1.52339,0.914037 m 12.18715,-1.828074 -7.92165,-1.218715 m -4.2655,3.046789 -0.60936,2.437431 -6.39826,0.304679 m -7.31229,-5.788899 2.43743,-0.914037 7.61697,0 4.87486,2.132752 m -194.08045,442.393744 1.82807,1.21872 m 0.91404,0.60936 8.83569,6.39825 m -16.45266,-11.88247 -0.30468,-0.30468 3.35147,2.74211 1.82807,1.21871 m -55.146879,-68.85742 4.265505,7.00761 m 4.570183,-1.82807 -1.523394,-2.43743 -0.609358,-1.5234 -2.437431,-2.74211 -5.179541,-4.87486 0,0.91404 -3.046789,-3.96083 -0.914037,0.30468 m -0.304679,-0.91404 0.304679,0.91404 4.874862,9.14037 m -13.101192,-10.05441 0.304679,0.91404 2.74211,4.57018 7.616972,11.5778 2.74211,3.96083 2.132752,3.35146 2.132753,3.04679 5.179541,6.39826 10.663761,12.79651 0.609358,0.91404 7.616972,7.61697 0.609358,0.91404 3.046789,3.04679 3.656146,3.35146 2.74211,2.43744 4.570184,4.2655 0.609357,0.60936 m 222.720269,-67.94339 -0.91404,-0.60936 m -0.30468,-1.21872 0.30468,1.21872 m 0.91404,0.60936 2.13275,0.91403 1.21872,-2.13275 2.13275,-0.60936 m 56.36559,-86.22412 1.82808,-0.91404 m -53.31881,53.01413 0.60936,0.60935 m -13.71055,10.66377 -2.43743,0.60935 m 25.59303,9.14037 -0.30468,-3.96083 m 17.97605,-62.76385 0,-0.30468 0,0.30468 z m -44.7878,61.24046 1.5234,-3.65615 m 3.04679,20.71817 0.91403,1.52339 m -9.44504,-54.53752 -13.10119,2.43743 m 52.70944,-3.04679 -0.60935,4.57019 m -58.80303,28.33513 0,7.3123 m 35.95211,9.14036 -4.2655,1.21872 -3.35147,3.04679 m 57.27963,-81.34927 6.70293,-3.35146 m -50.88137,52.70944 8.22633,0.91404 5.48422,-4.57018 m -20.41349,-3.96083 0.91404,4.87486 5.17954,2.13276 m -25.28835,-18.28074 1.5234,2.43743 7.31229,-3.35146 m 23.76496,-9.74973 0,1.5234 11.27311,3.35146 0,3.04679 m -4.2655,17.97606 0.30468,-3.35147 2.74211,-2.74211 -0.91404,-4.87486 1.5234,-2.43743 m -9.14037,17.97605 2.13275,9.14037 -0.60936,5.17954 -0.91403,1.52339 -3.04679,-0.30468 -1.82807,3.65615 2.74211,2.13275 1.82807,0 0.30468,-2.13275 3.65614,0.30468 m -17.97605,13.10119 1.21872,-0.30468 1.52339,-2.43743 -2.74211,-3.04679 m -8.22633,-17.06201 3.35147,-4.87487 10.35908,-5.7889 m -21.6322,-21.02284 3.65615,0.30468 4.57018,8.83569 6.70293,4.57018 m -34.73339,15.23395 0,3.35146 2.74211,3.04679 0,6.09358 m 12.79651,-39.30358 -10.35908,1.5234 -0.60936,16.45266 -4.2655,0 m 16.14798,-19.49945 -6.70293,-6.70294 0.60935,-14.62458 9.14037,0 0.30468,-10.05441 m 3.96082,66.72468 -3.65614,0.91404 -7.00762,-2.13276 -4.57018,5.7889 -5.7889,0.91404 m 4.26551,-38.9989 -6.39826,-0.60936 m 23.76495,-0.60935 7.92165,0.91403 3.96083,-4.57018 4.2655,-1.82807 0.91404,-2.74211 6.70294,-1.5234 -0.60936,-3.04679 13.71055,-4.57018 m 6.70293,-18.89009 1.82808,7.61697 m 15.53862,-0.91404 -2.13275,-0.60935 -2.43743,2.13275 -7.00762,-1.5234 -5.48422,0.91404 -1.21871,3.04679 0.60935,5.17954 5.17955,7.00762 -0.91404,5.48422 -3.04679,2.43743 0.30468,2.43743 -3.96083,-5.48422 1.82808,-6.09358 -3.96083,0 -3.96082,-4.57018 1.82807,-4.57019 2.43743,-1.21871 -0.91404,-7.00762 1.82808,-1.52339 -1.21872,-2.74211 m -21.93688,0 0.60936,3.35147 -1.82807,3.96082 2.74211,3.96083 3.65614,-0.91404 -0.30468,6.09358 -3.65614,-0.30468 -7.92165,-8.53101 -2.13276,2.13275 -3.35146,-0.60935 -3.04679,-1.21872 0,-2.13275 -4.87487,0.91403 -1.21871,-2.43743 -8.22633,1.82808 0.30468,-4.26551 -0.91404,-1.82807 m -35.03807,58.19367 1.21871,2.43743 -1.21871,-0.30468 m 24.06963,14.31991 -0.30468,8.53101 m 0,0 -3.65614,2.13275 -3.96083,-0.30468 -3.35147,-0.60936 -1.52339,-3.04679 -2.43743,2.43743 m 15.53862,-28.63981 -0.30468,8.83569 m 0.60936,-27.11643 -4.87486,-0.30467 -2.13276,-2.13276 -20.41348,0.30468 -2.74211,-2.13275 -7.31229,1.21872 m 130.70724,-99.02064 3.35147,-2.74211 4.87486,1.52339 7.61697,-4.57018 5.48422,0 11.5778,-14.62459 -3.96083,0 -15.23394,-6.70294 -1.82807,-2.74211 m -59.10771,54.23285 -1.52339,1.52339 m 21.93688,-9.44504 -0.30468,6.09357 m 2.74211,-10.0544 -2.43743,4.26551 m -21.93688,9.14036 -1.21872,4.87486 m 24.67899,-35.03807 4.26551,-2.13275 1.82807,2.13275 m -23.46028,33.51468 1.5234,-1.52339 -1.82807,-4.87487 m 0.60935,33.81936 9.74973,5.7889 m 5.7889,-64.89661 4.2655,8.22634 0.30468,3.96082 -2.13275,2.74211 m 6.09358,-16.75734 -7.00762,0 -3.96082,3.96083 -5.7889,1.21871 -4.87487,-1.21871 -1.52339,1.21871 m -6.70294,38.08486 0.60936,8.83569 5.17954,8.83569 -8.53101,1.52339 m 1.82808,-24.37431 0.91403,5.17954 1.5234,0 5.17954,-7.00761 -1.82807,-0.60936 0.60935,-2.13275 -2.74211,-0.60936 -1.21871,2.43743 -3.04679,-0.91403 0.60936,3.65614 m 18.28073,31.38193 -1.82807,-2.74211 6.09358,1.52339 0.60935,1.21872 m -0.91403,-95.05982 -0.30468,6.70294 -3.96083,0.60936 -0.60936,3.04679 3.04679,0.60935 4.57019,4.57019 3.04679,6.39825 2.43743,0.30468 0.60935,3.65615 4.87487,0.91404 4.87486,3.65614 6.39826,0.91404 1.82807,-1.52339 m -76.16972,-29.85854 0.60935,0.60936 -0.60935,5.48422 3.35146,0 -0.30467,1.82808 5.17954,2.13275 -0.30468,1.82807 5.7889,3.96083 0.30468,2.74211 3.65614,1.82807 2.74211,5.17954 3.04679,1.5234 5.48422,-1.82808 6.09358,5.48422 -0.60936,5.17954 2.43743,1.5234 -6.09358,6.09358 -1.82807,10.66376 5.48422,-1.82808 15.23395,0 15.8433,9.44505 0,2.43743 7.00761,5.48422 m -79.21651,25.28835 -1.52339,-2.74211 0.30468,-10.0544 -8.53101,-0.91404 m 41.741,6.70293 -2.74211,3.65615 0.91404,3.35147 m -125.5277,-77.38844 -0.91404,0.30468 m -1.82807,0.60936 -2.43743,-2.43743 m 58.19367,59.41238 -3.65615,0.91404 m -45.39716,-59.41239 0.30468,-7.00761 m 48.44395,59.71706 -3.04679,1.82807 0.30468,3.35147 -1.5234,0.30468 m -49.96734,-75.25569 0.91404,4.57019 0.60936,13.10119 m 37.17082,18.58541 7.00762,0.91404 0.30468,5.48422 -8.83569,0.30468 m -27.11642,-42.95973 -2.13275,4.26551 -1.5234,0.30468 -0.60936,5.48422 m -10.35908,-10.05441 -0.60936,2.43744 1.5234,0.30467 0,13.40588 m 69.46678,-4.57019 -5.17954,7.00762 3.04679,10.35908 4.87486,4.87486 0.30468,5.48422 -7.61697,-2.13275 -6.09358,0 m 23.46028,-1.21872 -2.43743,14.31991 -7.3123,7.61697 -1.21871,8.53101 -6.09358,4.57019 -1.21872,-3.04679 -4.57018,3.04679 -3.04679,-2.43743 -3.65614,3.04678 m -3.35147,-34.42871 9.14036,-0.30468 -0.30467,4.87486 5.17954,-0.60935 0.91403,2.43743 -2.74211,4.87486 3.04679,2.13275 0,3.65615 -1.82807,5.17954 -1.82807,-1.82807 -1.21872,1.52339 -2.43743,-0.30468 -1.5234,-2.43743 -0.91403,2.43743 -4.26551,0 1.82808,6.09358 -2.13276,-0.60936 -1.82807,2.13275 m 10.35908,-66.42 -8.22633,16.14799 -1.82807,0.60935 -2.74211,-3.35146 -3.65615,1.82807 -4.57018,4.57018 -1.52339,5.48422 m 54.53752,56.06092 -2.13276,-0.30468 -0.91403,4.57018 -8.22633,0.60936 -3.35147,-4.2655 -1.82807,-6.09358 -16.14798,-0.30468 m -60.32642,-79.82587 0,-0.30468 m 0,1.82807 0,-1.52339 m 1.52339,3.04679 -1.52339,-1.5234 m 16.45266,-5.17954 2.74211,-8.53101 6.70293,-1.82807 m -15.23394,10.35908 0.30468,-2.74211 2.13275,-0.60935 m -2.43743,3.35146 -4.26551,0.91404 -1.52339,2.13275 -4.87486,-0.30468 m 3.96082,0.60936 -0.60936,2.74211 2.43743,1.82807 m 57.27964,-17.36669 -0.91404,-3.65615 9.44504,-10.96844 2.43744,-15.8433 -3.35147,-5.17954 -0.91404,-6.39826 m -56.67027,48.13927 3.35147,3.35146 0.91403,5.17954 -1.52339,2.74211 m -14.31991,-1.21871 -0.30468,1.21871 m 24.67899,-18.28073 3.96083,1.21872 2.13275,3.04679 3.96082,-1.82808 8.53101,2.74211 4.87487,-2.74211 8.22633,1.5234 5.48422,-3.04679 2.43743,6.09358 2.13275,0.91403 -0.30468,3.35147 -3.96083,2.13275 -2.43743,4.87486 m -76.16972,23.1556 0.91404,0 m 0.60936,-2.13275 -0.60936,2.13275 m 2.13275,-17.3667 0.30468,2.74211 -3.65615,7.61698 1.82808,4.87486 m -31.68661,-14.01523 -5.7889,7.61697 m 38.69422,-14.62459 0.30468,5.7889 m -29.55385,6.39826 -1.5234,-5.48422 -4.2655,1.52339 m 13.10119,-0.60935 -2.43743,-0.30468 0.91404,2.13275 -1.21872,2.13275 -1.82807,-0.60936 -2.13276,2.13276 -0.60935,-0.91404 m -16.14798,-7.61697 3.65614,-3.96083 5.17954,-0.60936 2.43743,4.57019 -0.91403,3.65614 m 9.44504,3.35147 0.60936,2.43743 -1.52339,2.43743 4.87486,3.35147 -0.60936,7.00762 m -0.60936,-26.81175 -0.91403,2.43744 1.21871,0.30467 0.60936,4.87487 m 21.93688,-5.17954 -2.13275,-2.13276 -6.39826,1.21872 -1.52339,-1.5234 m 216.62669,28.63982 -3.96083,5.48422 m 0,0 0,17.67138 2.43743,3.65614 m -64.28724,-31.99128 -9.14037,-1.5234 -1.21871,1.5234 -4.26551,-0.30468 -4.57018,2.43743 -2.43743,-0.91404 -2.74211,3.04679 -8.22633,-1.21871 -2.74211,-1.82808 m 5.48422,-24.67899 -3.65615,3.96083 -1.82807,0.30468 m -15.23395,7.31229 4.26551,-2.13275 m 3.96082,23.46027 -0.30468,-2.74211 -8.53101,0.60936 -2.13275,6.09358 m 2.74211,-25.28835 -1.21871,-1.52339 -4.87487,1.52339 -1.52339,-4.57018 -5.7889,-5.17954 1.21872,-1.82808 7.00761,0 m 20.41349,24.67899 -2.74211,-1.52339 -4.26551,3.65615 0.60936,4.2655 m 6.39826,-26.81174 -4.87487,0.60936 0.60936,1.21871 -2.43743,3.04679 -4.2655,0.30468 m -81.95862,-14.62459 -0.60936,-0.30468 m -57.27963,-5.17954 0,-1.82807 m 17.67137,1.82807 0.30468,-1.21871 m -17.97605,1.21871 -1.21872,0.60936 m 15.8433,-69.77146 16.75734,0 m 1.82808,77.69311 -3.04679,0.91404 m -12.18716,-10.66376 1.82807,2.43743 m 10.35909,8.22633 0.30467,-2.13275 -1.82807,0.30468 m -21.6322,-19.19477 0.30468,4.87486 m 37.17082,-50.88138 17.67138,14.01523 m -4.2655,49.0533 -12.79652,0.30468 m -35.64743,-6.39825 0,1.82807 1.5234,-0.91404 1.21871,1.5234 m 0,0 1.5234,-1.5234 3.96082,-0.30468 m 25.59303,-4.57018 4.87486,-4.87486 1.82807,0.60936 0.30468,-1.82808 5.7889,-2.43743 3.04679,0.30468 m -30.46789,20.41349 -1.82807,2.43743 -1.82808,-1.5234 -2.43743,1.21872 m -28.63981,-3.65615 1.52339,-2.43743 3.96083,-1.21872 -0.60936,-1.82807 m 46.61587,5.17954 0,4.87486 m -9.74972,-25.59302 0.91403,-3.96083 -0.91403,-0.91403 1.52339,-37.78019 7.31229,0 -13.40587,-9.74972 m 4.57019,52.40477 -16.14799,-0.91404 -0.30467,1.21872 -5.48422,0 -0.91404,1.52339 -2.13275,-2.74211 -2.74211,4.26551 m -18.58542,5.48422 6.09358,-1.21872 4.57019,1.82807 -2.13276,0.91404 -3.04679,-1.52339 -6.39825,2.43743 m 31.38192,4.87486 1.5234,3.04679 -1.21872,1.82807 1.5234,-0.30468 1.21871,3.65615 -0.30468,1.21871 m -15.53862,-17.36669 2.74211,3.35147 -0.30468,2.74211 -15.53862,-1.21872 -5.7889,1.52339 m 19.80413,-11.27311 -7.92165,-8.83569 -7.61698,0.60936 -1.21871,2.13275 m 44.17844,28.33513 -2.13275,-2.13275 1.82807,-4.57018 -0.60936,-1.82807 4.57018,-2.43744 2.13276,-5.48422 2.13275,1.21872 m -50.27202,-34.42871 1.21872,-2.43744 14.62458,0 1.21872,-7.00761 4.57018,-2.43743 2.43743,-10.96844 12.79652,0 2.74211,-11.5778 12.18715,-5.48422 m 231.86064,23.1556 0.30468,-0.30468 m -17.97606,-22.85092 1.21872,0.60936 m 25.59302,17.97605 2.13276,-0.60935 m 4.2655,-1.21872 1.21872,1.82807 m -35.95211,36.56147 7.92165,3.35147 0.60936,4.87486 7.92165,-12.18716 21.32752,-7.92165 0.30468,-8.83568 -2.43743,-3.04679 -11.5778,-1.21872 -7.92165,-10.96844 m 11.88248,28.63982 0,1.82807 6.09357,9.14037 m -36.86614,-55.14688 -3.35147,1.52339 -3.35147,-1.82807 m 24.67899,8.53101 -6.39825,-6.39826 m -10.35909,-5.48422 -0.91403,3.65615 m 35.64743,12.18715 2.43743,-2.13275 1.82807,4.26551 m -40.52229,66.72467 -4.87486,0.30468 -0.30468,-2.43743 2.43743,-4.87486 2.74211,-0.91404 m -11.27312,-76.77908 0.30468,1.82807 1.52339,0.60936 m 12.49184,52.70945 -4.87486,-0.30468 0,3.65615 -1.5234,1.21871 m 11.27312,-53.62348 -11.88248,-3.96083 -2.43743,1.21872 -3.04679,-1.21872 m 48.13927,29.24918 -0.30468,-5.48422 1.52339,-0.60936 -1.52339,-3.35147 1.52339,-0.60936 m -31.07724,44.48312 0.30468,2.74211 2.13275,0 -0.60936,1.5234 -5.17954,1.52339 0,2.74211 -3.04679,0.91404 -0.60936,1.52339 m 4.87486,-76.77908 0.60936,0.60936 m -6.39825,88.96623 -2.13276,-3.04678 2.43743,-3.96083 m -38.38954,-53.01413 -6.09357,5.7889 -3.65615,-0.91403 m 3.04679,-34.42872 -0.30468,1.82807 m -38.38954,32.60065 27.4211,0 0.60936,-0.91404 0.30468,0.91404 7.31229,0 m 1.52339,-34.42872 0.91404,2.13275 m -41.74101,43.56908 0.60936,17.3667 -4.87486,0.60936 -4.87486,12.79651 3.04679,0.91404 2.13275,7.92165 -5.48422,1.21872 -2.43743,3.04678 m 12.49183,-89.57559 1.21872,3.04679 2.43743,40.21761 -4.57019,0 0.30468,2.43743 -18.28073,-9.14036 m 60.32642,-33.81936 4.57018,0.60936 2.13276,-2.74211 2.74211,-0.60936 m 12.79651,52.40477 -4.26551,4.2655 -1.82807,0 -2.13275,20.10881 -1.82807,0.30468 -2.43744,3.96083 -0.91403,5.17954 -1.21872,-0.91404 -1.21871,1.52339 0,2.74211 m -52.40477,-4.2655 3.04679,4.2655 m -109.37972,-4.57018 0,-0.60936 m 67.33403,-8.22633 -2.43743,-1.21871 m -43.2644,-27.72578 7.00761,-1.21872 7.61697,-6.39825 m -19.19477,24.98367 -15.8433,1.52339 m 35.03807,-26.50706 20.41349,-11.88248 m -54.53752,38.38954 0.91403,5.17954 3.35147,2.43743 -1.52339,1.5234 2.74211,1.82807 2.43743,-0.30468 0.91404,3.96083 m 61.54513,8.83568 -2.74211,-2.43743 0,-7.00761 -2.43743,-3.96083 m -50.27202,-11.57779 3.35147,-4.87487 1.21872,-12.49183 -4.26551,0.91404 0,-3.96083 -5.7889,-1.82807 -7.31229,-7.00762 m 87.74752,1.21872 -17.67138,-8.83569 -7.92165,3.96083 -3.04679,-2.43744 -6.70293,-1.52339 -1.5234,-3.35147 -5.78889,-1.52339 -3.35147,-6.70294 2.13275,-1.52339 0.91404,-5.48422 -1.82808,-9.14037 m -53.01412,-23.46027 0,-0.30468 m -7.3123,23.76495 9.14037,-3.96082 0,-3.04679 3.96083,-1.5234 6.39825,0 0,-10.66376 -1.52339,-1.21871 m 196.2132,20.41348 -3.04679,0 m -28.33513,-7.92165 15.23394,6.39826 0.30468,1.52339 m -7.92165,-37.780181 -2.13275,0.914037 3.04679,3.960824 -0.30468,1.5234 6.39825,7.31229 3.65615,0.91404 -0.91404,7.00761 3.65615,3.96083 5.48422,2.43743 2.13275,2.43743 0.60936,3.35147 1.21872,0 0.60935,1.82807 2.43743,2.13275 m -54.8422,-4.87486 0.60936,-1.5234 m 1.21872,-6.09357 1.82807,-0.60936 m 14.92927,3.96082 2.74211,1.21872 m -17.3667,-3.35147 -1.52339,3.04679 m 0.30467,0.60936 -0.30467,1.82807 2.13275,-0.30468 0.30468,1.5234 -0.60936,4.57018 m -4.57018,-5.48422 3.04678,5.48422 m -39.30357,-6.70293 -1.21872,6.09357 0.30468,0.60936 m 50.88138,0 0.30467,0 1.5234,-2.13275 -4.87486,-3.96083 8.22633,-3.04679 -3.04679,-4.57018 -6.39826,4.26551 -4.87486,-1.82808 m -104.80954,10.35908 -1.21871,-7.61697 -2.74211,-1.82807 -2.74211,-5.48422 3.35146,-3.04679 0.60936,-7.00761 1.82807,-1.82808 m 0.30468,27.72578 -0.30468,-0.30468 3.96083,-2.74211 0.60936,-3.96082 5.48422,-3.04679 0,-2.74211 m 292.79641,119.12944 0.30468,0 -0.30468,-1.21871 0.60936,0.91403 0.60936,4.26551 0.30468,-0.60936 -0.30468,-2.43743 m -4.57019,-15.53862 0,-2.13276 m 3.04679,16.75734 0.30468,0 m -263.85192,16.14798 -1.52339,3.04679 m 263.54724,-44.78779 0,0.91403 m -15.23395,-46.00651 0.30468,1.21872 m -1.21871,-2.43743 1.21871,2.43743 m 15.8433,50.57669 0.30468,1.21872 -0.30468,-0.91404 0.30468,1.5234 m -4.2655,-20.71817 0.30468,0.60936 -0.30468,-0.60936 m -5.17954,-14.01523 -0.60936,-3.04679 0.60936,1.82808 -0.30468,-1.5234 m 8.22633,27.4211 0.30468,1.5234 m -15.23395,-45.09248 0.60936,0.91404 1.21872,5.17954 0.60935,0.91404 m 7.00762,15.8433 0.60936,1.82807 m 5.17954,21.32752 0,0.30468 0.91403,3.96083 -0.30467,-0.91404 0.30467,2.43743 m -13.71055,-44.78779 0.91404,2.74211 0.60936,0 2.74211,8.83568 0.30468,0.30468 m -2.43743,-9.74972 0.60935,1.82807 1.21872,2.43743 3.04679,9.44505 m 5.17954,23.15559 -2.13275,-8.83568 -0.60936,-3.65615 0.30468,0 m -12.79651,-36.56147 1.52339,3.35147 0,-0.30468 0.60936,2.13275 0.91403,1.82808 0.60936,0.91403 -0.60936,-1.52339 0.60936,1.21871 0.30468,1.21872 0.91404,1.82807 0.60936,1.82808 -0.30468,-0.30468 m 2.13275,7.00761 -0.30468,-1.21871 0.30468,0.30468 1.52339,4.2655 2.43743,7.92165 1.82808,7.00762 0.30468,0.91403 -0.30468,-1.82807 -0.30468,-0.60936 m -11.88248,-32.29596 0.91404,1.82807 0.30468,0 -2.43743,-5.7889 0.30468,0.30468 -0.60936,-1.52339 0.91403,1.52339 -0.60935,-1.82807 0.60935,1.52339 -1.21871,-3.96082 0.91404,2.13275 0.30467,0.30468 1.5234,3.65615 0,0.60935 m 12.49183,54.53752 0,-1.82807 m -14.62458,-53.62348 0,0.30468 m -36.25679,-34.42872 10.0544,8.83569 -0.30468,-1.21872 3.35147,1.21872 m 4.57018,0.60936 0.91404,-0.60936 -0.91404,-3.04679 -0.30467,-3.04679 m -3.35147,11.88248 2.13275,0.60936 -3.04679,-6.70294 0,-0.60936 3.65615,5.48422 3.35147,-0.60936 -2.74211,-4.2655 -2.74211,-1.52339 0.60935,4.2655 m 6.70294,-3.96083 -0.60936,-1.21871 0.91404,1.21871 1.82807,3.04679 0.30468,-0.30468 1.82807,3.35147 1.82808,4.26551 0.91403,3.04679 2.13276,5.17954 0.60935,-0.91404 1.82808,4.2655 0.91403,0.91404 0.91404,3.65615 0.91404,0.30468 m -18.89009,-31.38193 1.21871,1.21872 -0.30468,-1.82808 0.60936,0.91404 0.60936,1.52339 0,-0.60935 0.91403,1.21871 0.30468,1.5234 1.5234,0.91403 0.91403,2.43743 1.21872,2.13276 -1.21872,-0.60936 0.60936,2.74211 4.57019,11.88248 -1.21872,-0.91404 3.04679,7.92165 0,1.21872 m -33.51468,-34.42872 -0.30468,1.21872 1.5234,3.65614 7.61697,5.48422 2.13275,0 3.35147,3.35147 3.04679,0.91404 m 36.86614,73.12293 -0.91403,-6.70293 -2.43743,-9.74973 -2.13276,-5.48422 -1.21871,-6.09358 0,0.60936 -3.96083,-10.35908 0.30468,-0.30468 -1.82807,-5.48422 0.60936,0.30468 -0.60936,-3.04679 0.30468,0.30468 m -12.79652,-5.7889 -2.74211,-7.00761 -1.52339,-1.82808 -0.91404,-2.74211 -1.52339,-1.82807 0,-2.43743 -2.13275,-2.43743 -1.21872,-3.35147 2.43743,2.43743 0,-0.91404 2.13275,4.26551 3.65615,1.52339 0.91404,5.17954 1.82807,3.35147 -0.91404,-3.35147 0.30468,0 4.87486,10.66376 -0.60935,-0.60935 0.30468,1.21871 m -49.96734,-13.71055 -1.5234,-0.30468 -0.60936,3.04679 m 3.04679,-27.11642 -0.30468,8.53101 -2.13275,1.21872 -1.82807,-1.5234 -0.60936,3.65615 0.60936,1.82807 2.13275,0.91404 0.60936,2.43743 2.13275,1.21871 3.04679,5.48422 -4.57018,0.60936 m -17.67138,-24.37431 0.30468,0.60936 -5.17954,1.82807 -10.35908,-1.82807 m 9.44504,19.80413 -0.60936,-4.57019 3.35147,-1.52339 -0.30468,-2.13275 -2.13275,-0.60936 -1.52339,-4.26551 -3.04679,-1.21871 -5.17954,-5.48422 0,-0.60936 m 35.64743,-48.748621 0.60936,0 4.57018,3.960825 -2.43743,-3.046789 m 10.0544,46.920545 1.5234,-0.60935 1.82807,1.52339 m -35.64743,-47.529906 0.60936,0.609358 m -17.97606,-25.897705 1.82807,1.218715 1.5234,0.304679 -0.30468,-0.914037 2.74211,2.132753 m 40.52229,66.419993 3.35147,2.74211 0,0.91404 m -40.52229,-72.818253 2.43743,0.609357 -0.60936,-0.609357 m -4.87486,2.437431 -0.60936,-2.437431 m 4.26551,16.147981 1.21871,-1.218716 1.82807,0.609358 -1.52339,-1.523395 -4.2655,-5.179541 3.35146,1.218716 0.30468,-0.914037 -4.2655,-4.265504 0.60936,-0.304679 -1.82808,-1.828073 0.91404,-0.304679 2.13275,1.828073 4.57018,2.132752 3.96083,3.046789 5.7889,5.788899 3.04679,0.914037 3.65614,2.132752 5.48422,5.48422 2.13276,0.304679 m -18.28074,2.74211 0,-0.609358 -1.82807,-2.132752 -0.60936,-1.828074 -5.17954,-5.179541 -1.21871,-0.609357 m -7.92166,16.757339 -0.30467,0 m -3.96083,-3.351468 -0.91404,-0.609358 m 5.17954,3.656147 -0.91403,0 m 3.35147,-1.828074 -0.30468,0.914037 m -9.14037,-2.437431 1.82807,-0.304679 m -7.00761,-4.265505 0.91404,1.523395 0.91403,0 3.35147,3.046789 m -23.46027,-12.187156 5.78889,3.960826 m 28.9445,11.882477 1.21871,0.914036 -1.21871,-0.914036 z m -1.5234,-11.273119 3.96083,1.828073 m 25.28835,39.60826 0,3.04678 m -56.67028,-45.092471 6.39826,-0.914037 4.26551,3.046789 0.30467,-0.609358 1.21872,2.132752 m -3.35147,8.531009 -3.65614,-3.960825 -1.5234,-0.304679 m 19.19477,7.00761 0,-1.218711 2.13275,0.304679 -0.30468,-2.132752 m 0,-0.304679 -0.91403,-2.132753 1.21871,0.609358 0.60936,-1.523394 1.5234,1.218715 m -4.26551,5.179537 2.43743,1.21872 2.43743,3.04679 0.91404,3.65615 m 1.21872,-8.531013 1.52339,-0.609358 2.74211,1.523391 2.13275,-0.914033 m -15.8433,-5.788899 0.30468,0.914036 1.82807,0.609358 -0.91403,-2.74211 1.82807,-3.046789 m 5.17954,7.312294 -2.74211,1.218715 0.91404,1.218716 3.04679,0.304679 m 1.52339,-11.882477 6.09358,0 2.74211,1.523394 m -16.75734,0.304679 -0.60936,-1.523394 0.91404,-0.609358 4.57018,1.523394 -1.52339,-2.132752 0.60935,-0.914036 m -0.60935,10.054403 3.65614,1.218716 1.5234,-2.437432 -2.74211,-0.609357 m 0,0 -2.43743,-2.132753 0.60935,1.523395 -3.65614,-1.523395 0.60936,-2.132752 -0.91404,-0.304679 m 1.82807,17.976057 -1.21871,-2.43743 -15.23395,-7.616976 m 45.70184,17.062016 0,3.35147 -6.09358,0 1.21871,2.43743 1.21872,0.30468 0.91404,3.04679 4.87486,3.65615 m -53.01413,-34.12404 -3.65615,-0.609358 -1.82807,-2.74211 -0.30468,-0.304679 m 17.06202,24.678987 -2.43743,-3.96082 -2.13275,0 -1.5234,-1.21872 m 47.83459,21.32752 1.21871,2.13276 0,4.2655 m 3.65615,-13.71055 2.74211,2.43743 -0.30468,1.5234 -1.52339,-0.60936 3.35147,4.87486 0.30467,-0.30468 3.04679,2.13275 m -24.98367,-24.37431 -4.87486,2.13276 0,1.52339 3.04679,3.35147 -0.30468,2.74211 1.21872,1.82807 -2.74211,0 2.74211,3.04679 -1.5234,0.91404 1.82808,4.57018 -5.17955,3.04679 0.91404,4.87486 m -15.23394,0 0.91403,-4.2655 -0.91403,-1.5234 -2.74211,-0.30468 -3.65615,-6.39825 0.30468,-1.82808 -1.5234,-0.60935 -0.91403,-1.82808 0.91403,-0.60936 -1.52339,-5.17954 4.57018,1.5234 0,-2.43743 2.74211,-1.5234 -0.91403,-3.35147 1.52339,-1.82807 7.00762,2.43743 1.21871,-1.52339 1.21872,0.91403 0.60935,-5.17954 2.74211,2.13276 3.35147,4.87486 1.5234,-3.04679 3.96082,0.60936 m -11.88247,-27.421103 -0.30468,0 0.30468,-0.304679 m 28.03045,41.436332 0.91404,1.52339 -2.13275,-3.96082 -2.13275,-1.21872 -2.43744,-3.35147 -4.57018,-1.21871 -2.43743,-3.04679 -4.2655,-1.82808 0.91403,-1.21871 -3.35147,-3.96083 -2.43743,-0.30468 -2.43743,-3.351463 -0.30468,-3.960826 3.35147,0.609358 -0.91404,-2.437431 2.13276,0 0.91403,-3.046789 m -89.27091,17.062021 0.91404,0.91403 m 28.33513,-28.639812 5.17954,-2.132753 3.35147,1.523395 m -0.91404,13.405871 -7.61697,-12.796513 m -25.28835,12.796513 -4.87486,0.609358 m -3.04679,-29.553852 0.60936,4.874862 2.13275,0.609358 m 6.70294,29.249173 3.35147,0.609358 2.43743,2.742112 m -15.53863,18.89009 3.35147,-2.13275 -1.21871,-7.3123 3.04679,-2.74211 m 6.39825,-17.976051 5.48422,2.437431 1.21872,-2.132752 m -10.05441,1.828073 4.87487,0.914037 -1.5234,-3.046789 m -10.96844,-3.656147 -9.44504,-2.132752 -1.82808,0.609358 m 51.79541,7.312293 -1.52339,0 -5.7889,-3.656147 -3.65615,2.132753 m -27.11642,-21.93688 0.91404,1.218715 4.57018,1.218716 2.43743,2.132752 -1.21871,0.304679 2.74211,1.218715 m -0.91404,15.233945 -5.17954,-2.74211 -3.35147,0.304679 -2.43743,-1.218716 m 4.26551,21.327518 1.21871,-0.91403 4.57019,0.30468 1.21871,1.21871 1.21872,-0.60936 m 3.35146,-6.70293 -0.91403,-2.437432 -3.65615,-1.523395 0.91404,-0.914036 -4.57019,-3.960826 m -3.96082,-28.944494 0.30468,0 -0.60936,0 m 5.7889,35.038072 5.7889,3.046791 4.2655,-3.35147 1.82808,1.218716 -0.30468,2.132754 3.35146,1.52339 m -28.03045,-11.273117 3.96082,-0.304679 3.65615,2.437432 1.21871,2.74211 4.26551,1.828073 m 40.21761,-9.445046 -4.87486,-1.828073 -0.91404,0.609358 1.82808,0.914036 -1.82808,-0.609357 -1.52339,2.132752 1.52339,2.437431 -3.04679,-0.304679 m 19.80413,16.147979 -3.04679,-2.13275 -6.09357,-1.52339 -1.5234,-1.21872 -4.57018,0.60936 -1.21872,2.43743 -2.13275,0.30468 m -38.08486,0 -7.31229,2.13275 m -0.60936,13.40587 3.65614,-2.13275 m -3.04678,-11.27312 -2.43744,0.60936 -9.44504,-0.60936 0.60936,2.13275 -2.43743,1.21872 m 96.5832,-54.842202 2.74211,1.523394 4.57019,3.656147 -0.91404,-0.914037 1.52339,1.218716 m -21.93688,-2.437432 0.60936,0.304679 -1.21871,-1.523394 3.35146,1.523394 m 0,0 1.21872,-0.609357 5.17954,3.046789 m 10.96844,0 -0.91404,-0.914037 -2.74211,-2.132752 -3.65614,-3.656147 1.21871,0.914037 m 0.60936,5.788899 -1.21871,-2.742111 2.43743,0.914037 2.13275,1.523395 0.30468,0.304679 m -51.79541,-3.960826 -0.91404,-0.609358 m -3.65615,-7.921651 0.91404,0 m 0.91404,7.616972 1.82807,0.304679 m -2.74211,-7.921651 0.91404,-0.609358 m 24.98367,3.046789 7.92165,4.874862 m -14.62459,-5.179541 1.21872,0 0,-1.828073 m -19.49945,7.312293 -2.74211,-1.218715 m 7.00761,-9.445046 3.35147,0 m 0,0 3.04679,1.828073 1.21871,1.218716 m -11.88247,-0.609358 2.13275,-0.609358 m 17.3667,1.523395 0.60935,-0.914037 0.91404,1.218716 3.96083,1.828073 m -22.85092,-3.656147 2.74211,-0.914036 -0.30468,-0.914037 m 7.31229,3.046789 2.13276,0.304679 -0.91404,-0.914037 2.13275,1.523395 1.5234,-0.609358 1.52339,1.828073 m 14.62459,5.179541 3.35146,2.437431 m -33.51467,-1.218715 0.60935,1.523394 -3.35146,-0.304679 m -2.74211,-3.351467 1.21871,-0.914037 -1.82807,-1.828073 2.43743,-0.304679 -2.74211,-0.914037 0,-0.609358 -1.52339,-0.304679 -0.60936,-0.914036 3.96082,-0.609358 m -3.04679,9.140367 -0.60935,-0.304679 m 0.91403,0 -0.30468,0.304679 m -11.88247,-1.218716 -1.82808,0 m 6.70294,2.74211 -4.87486,-2.74211 m -12.79652,3.351468 0.30468,1.218716 m 10.66376,-4.570184 -1.21871,-0.914037 -0.91404,0.914037 -3.04679,-0.914037 m 23.76496,2.74211 0,1.218716 -4.57019,-2.132752 m -0.91403,0 -0.30468,0.914036 -2.74211,-0.609357 -0.60936,1.523394 -3.65615,-1.523394 0.91404,1.523394 m -13.71055,1.828074 -3.96083,-1.218716 m 5.7889,-4.265505 -3.35146,3.351468 1.82807,2.132753 m -151.73009,24.069632 -5.17954,-2.437431 m -24.67899,4.874862 6.39826,0 1.52339,1.523394 -3.04679,1.828074 -2.13275,4.874862 -1.82807,0.304679 1.21871,2.132751 -3.65614,7.00762 m 159.95641,-42.959728 0.60936,1.218716 m 0,0.304679 0,-0.304679 m -0.91404,-1.218716 0.30468,0 m -59.41238,21.327522 1.21872,0.609358 -0.91404,1.218716 m 8.22633,0.914036 -6.09358,1.523395 m 22.85092,10.359081 -0.30468,0.60936 m -3.35147,-5.484221 -0.60936,0.609358 m 3.35147,5.484223 0,0.91403 m 6.09358,7.00762 0.60936,0 m -10.05441,-12.796516 0.30468,0.914037 m 6.70294,10.359079 0.91403,0.30468 m -5.78889,-9.140364 1.21871,0 m -0.30468,3.960824 0.30468,0.91404 m 3.04679,2.13275 0.60936,0.91404 m 0.91403,1.82807 0.60936,0.91404 m 2.13275,-35.647433 0.91404,0.304678 m 21.93688,3.351468 -0.30468,0.914037 m -22.24156,31.38193 1.5234,0 m -6.39826,-5.17955 0,0.60936 m 32.60064,-38.084859 0.91404,0.609358 m -33.21,1.218715 -1.21872,0 m 10.35909,42.045686 1.21871,0.60936 m -14.92926,-44.17844 -2.74211,0.914037 m 2.74211,-0.914037 3.35146,1.523394 m 33.51468,-1.828073 0.30468,-1.523394 m -1.21871,3.960825 -1.82808,0.914037 0.30468,1.523394 m 1.5234,-2.437431 2.13275,0 -0.30468,-1.828073 m -31.99128,21.632201 -3.65615,-0.304679 -2.13275,1.218716 m 30.16321,-27.116422 6.09357,0.914037 m -27.4211,9.749725 -4.2655,-4.874863 m 25.28835,-6.093577 0.30468,0.304678 m -42.04569,28.639816 -0.60936,-2.437431 -1.82807,-1.218716 2.13275,-3.046789 -2.43743,-2.132752 0.91404,-1.523394 m -8.53101,15.843302 0.91403,0.609358 2.74211,-3.656147 -3.35146,-6.702935 -0.60936,0 m 3.65615,5.788899 11.57779,-2.437432 6.09358,0.914037 0.91404,-1.523394 1.52339,1.218715 -1.82807,2.437431 m -23.1556,-25.288348 4.57019,-1.523394 4.87486,2.132752 m -2.43743,-1.523394 2.13275,-1.828074 -0.91404,-1.828073 1.82808,-1.218715 m -8.83569,12.187155 3.04679,-0.304679 2.43743,-4.265504 3.35147,-1.828074 5.7889,1.218716 5.48422,-1.523394 5.17954,3.960825 0.91403,4.570183 5.48422,1.218716 m -32.29596,-3.046789 0.60936,0 4.57018,3.351468 -0.30468,1.218715 4.57019,0.609358 0.91403,2.74211 8.53101,0.609358 5.17954,-1.828073 5.48422,1.523394 m -30.16321,-17.976054 0.30468,0 4.57019,-0.914037 3.04678,1.218716 m -18.89009,8.22633 -3.04679,1.218715 -0.91403,2.437431 -6.09358,-0.304679 m 17.67138,-1.218715 2.13275,2.132752 -1.5234,1.218716 m 0.91404,4.570183 2.74211,1.523394 m -5.17954,2.132753 1.52339,-3.656147 2.13276,-0.304679 -1.21872,-1.218716 1.21872,0 -1.82808,-1.218715 0.91404,-1.828073 -12.18716,-0.914037 1.5234,3.351468 7.92165,5.788899 z m -38.38954,-4.265505 0.30468,0 m 4.2655,8.531009 1.5234,-0.304679 m 1.82807,-3.960825 0,-0.609358 m 25.89771,-17.976055 -0.30468,-0.304679 m -24.37431,3.351468 0,-0.609358 m 32.29596,25.593027 1.52339,-0.304679 m -35.34275,-10.663761 -0.60936,-0.914037 m -27.11642,2.437432 -0.91403,-0.304679 0.91403,0.304679 z m 5.17954,0.304678 -5.17954,-0.304678 m 19.80413,-24.67899 -0.91404,1.218715 m -19.49945,23.155596 -4.87486,-0.304679 m 48.74862,-20.413486 2.74211,0.609358 1.21872,-1.218716 4.57018,0.609358 1.82808,2.132752 m -11.27312,8.22633 -0.91404,-2.132752 1.21872,-0.914036 -4.26551,-0.609358 -0.60936,-1.218716 -5.78889,0.609358 m -17.67138,-9.749724 -0.30468,0 m 6.39826,1.523394 -2.74211,0 -0.91404,-1.523394 m 42.35037,1.523394 -6.09358,2.74211 m 10.96844,20.413486 -1.5234,-0.304679 -0.91403,2.74211 m 2.43743,7.312293 0.30468,0 m -43.87376,-21.632201 -0.91404,-1.523395 -2.43743,0.914037 3.96083,-4.265504 5.17954,-1.218716 3.65614,0.914037 m 20.41349,2.132752 1.52339,-0.304679 -0.30468,-2.437431 2.43744,-0.914037 4.57018,0.914037 4.2655,-1.218716 m -32.90532,1.828074 1.21872,0.914036 1.21871,-0.914036 2.43744,0.609358 3.35146,-1.218716 2.43743,0.914037 -0.60935,-2.132753 3.35146,-2.132752 -3.35146,-2.132752 -0.91404,-1.523394 m -18.28073,20.108806 0.60935,-1.218715 -2.43743,-0.609358 -0.60935,-2.437431 2.13275,-1.218716 -0.91404,-1.218715 3.65615,-0.304679 2.13275,-1.828074 1.52339,2.132753 1.21872,-2.437431 2.74211,0.914036 1.21872,-2.132752 -3.04679,-0.609358 0.30468,-1.523394 m -6.09358,0 2.74211,-4.570184 -5.48422,-1.523394 0,-1.523394 m 22.24156,10.96844 2.74211,0.609357 5.48422,-1.828073 5.17954,3.656147 7.31229,-1.218716 m -6.39826,-12.187155 2.43744,1.828073 1.52339,-0.609358 1.82807,1.218716 m -73.73229,-17.366697 -3.35147,1.828073 4.26551,0.914037 m 88.66156,-16.757339 -0.30468,0.914037 m 1.82807,1.828073 0.60936,0.304679 m 23.46027,21.632201 0,0.304679 m -22.54624,-12.796513 -0.60935,0 m -1.21872,-8.835688 0.91404,-0.304679 m 14.01523,14.015229 0,0.609358 m -11.88248,-6.398257 -1.21872,0.914037 m -0.60935,0 -1.82808,0.304678 m 15.53863,4.570184 -2.13276,-1.218716 m -12.79651,-8.22633 0.60936,-1.218715 m 23.46027,16.757339 0.30468,1.523394 m -7.92165,-2.132752 -2.43743,0.304679 m -14.01523,-19.499449 0.60936,3.046789 m -10.96844,9.749724 -0.60936,-2.132752 m 0,0 -3.96082,-0.304679 m 28.94449,9.140367 -0.30468,2.132752 m 4.26551,-6.398257 -3.04679,-0.914036 m -4.87487,7.007614 3.65615,0.304679 m 10.66376,0 3.35147,0.914037 m -28.33514,-13.405872 0.91404,0.914037 -1.52339,0.914037 m 19.19477,4.265504 -3.65615,0.914037 m 0,0 2.13275,3.046789 m -17.67137,0.609358 5.78889,0.914036 m -5.78889,-0.914036 -5.48422,0.914036 m 19.49944,-8.22633 -1.82807,-3.351468 m -18.89009,-31.381925 1.82807,0.609358 0.30468,1.218715 2.13275,-1.523394 m 6.70294,29.858531 -3.04679,-3.656147 m 5.17954,-12.796513 -6.09358,5.179541 m 5.48422,24.069632 5.48422,0.609358 m 0.91404,-12.187156 -7.92165,-1.218715 m -3.04679,-3.656147 -5.48422,-1.523394 -2.43743,0.609358 m 24.37431,15.843302 5.48422,-0.914037 2.13275,1.523395 m 3.65615,2.74211 1.82807,1.828073 5.17954,-0.304679 1.82808,1.523395 m -37.78018,-14.624587 -0.60936,2.437431 -6.39826,0.304679 m -7.31229,-5.788899 2.43743,-0.914037 7.61697,0 4.87486,2.132752 m -5.17954,-29.553852 0.30468,1.218716 2.74211,0.914036 -0.91404,1.523395 5.48422,5.48422 -0.91403,0.914036 4.2655,1.828074 m -14.01523,-13.71055 -2.43743,0.609358 -1.21871,1.828073 -4.26551,-0.304679 -2.13275,-0.914037 -1.21872,0.609358 5.7889,1.828073 2.13276,4.570184 m -7.92166,-6.398257 -0.91403,0.914037 m 14.01523,45.092476 2.13275,-1.828074 -3.65615,-5.179541 1.82808,-2.437431 -3.04679,-3.656147 -8.22633,0 m -31.99129,-1.828073 4.26551,0.914037 m -14.01523,13.405871 -0.30468,0.609358 m 0.60936,-2.437432 -2.43743,-2.132752 -4.87487,0.304679 m 33.81936,1.523394 -0.30468,-5.179541 -1.52339,-0.609357 0.91403,-1.218716 m -31.99128,9.749725 -3.65615,-3.351468 m 6.39826,3.351468 -0.30468,-0.609358 -2.13275,0.609358 m 44.48312,-45.092476 0,0.304679 -3.35147,-0.304679 -0.30468,0.914036 -2.13275,0 -2.43743,3.046789 -1.82808,0.304679 -2.13275,3.046789 0.91404,0.914037 -3.04679,0.304679 -1.82807,1.523394 -0.30468,3.351468 1.52339,0.914037 -1.52339,0.914036 0.30468,2.132753 -1.5234,0.609357 -0.91403,2.132753 -2.13276,0 m 0.91404,24.983669 -0.60936,-1.218716 m 23.46028,-11.882477 -1.21872,0 m -40.21761,13.101193 -0.30468,-3.351468 0.91404,-2.132753 3.35146,-1.218715 -0.91403,-0.914037 2.13275,-2.437431 -2.13275,-0.609358 m 14.92926,9.445046 9.44505,-1.828073 3.65614,0.914036 0.60936,1.828074 0.91404,-1.218716 2.43743,0.304679 1.52339,1.218716 m 14.31991,-47.834586 0.60936,0 m -0.30468,0 -0.60936,0 M 32.323703,376.95012 l -1.827819,0 m 9.444792,22.85091 3.351467,0.60936 m -2.132752,-7.92165 1.218716,0.30468 3.046789,6.39826 m -21.63207,-34.7334 2.741725,2.43743 2.132874,5.17954 1.828459,5.17955 m 2.132244,9.44504 4.570184,5.17954 2.742364,7.92165 m -7.921398,-13.71055 0.913915,0.91404 m -0.60949,-10.0544 1.523395,1.52339 3.046789,7.00762 1.828073,0.30467 3.960826,10.35909 0.609357,4.2655 m 2.132753,-1.21871 -0.304679,4.57018 1.828073,7.31229 m -27.421232,-60.32642 1.828459,0 1.21833,4.57019 2.437309,4.2655 2.132874,8.83569 m -0.913904,9.44504 -3.656279,-11.57779 1.218979,-1.82808 m 0.60948,15.8433 -1.218969,-4.57018 1.523394,1.82807 1.523395,3.04679 -1.21897,-3.96082 0.60948,0 4.875248,7.92165 1.523394,1.52339 m -24.6793756,-60.02174 1.8284592,7.3123 3.3512144,14.3199 0.913904,3.35147 1.21898,3.96083 1.218329,4.2655 0.305065,0.91404 m -10.0542813,-38.69422 0.9139148,4.87486 0.6094797,0.60936 0,-2.13275 m 0.60885,-3.35147 1.2189694,6.09358 0.9139044,3.35146 0.913915,2.43744 0.914545,0.60935 2.132244,4.26551 1.523394,1.21871 1.523395,5.7889 1.828459,5.48422 0.304415,0 m -11.8820908,-25.8977 0,-3.35147 m 7.3119078,35.03807 2.437309,6.39826 0.914544,2.13275 1.523395,4.57018 4.570183,10.66376 0.60885,0.91404 1.828459,4.26551 0.913905,3.35146 4.874608,9.74973 0,0.30468 4.570184,9.14036 1.828327,3.04679 m -27.726033,-175.79972 0.305065,-0.60936 0,-1.52339 m 4.265118,29.55385 1.21897,-5.17954 -0.304425,-7.00761 1.21833,-3.96083 m -4.874599,18.28074 0.60948,0 0,-3.04679 1.523394,-0.30468 1.21833,2.43743 0.60949,-1.21872 1.218969,0.91404 2.741724,-8.83569 m -11.5776654,-1.82807 0.304425,2.13275 -0.60885,5.48422 0,4.57018 0.9139144,3.04679 1.82781,-3.65614 1.218979,0.30468 -1.523394,-10.05441 0.304415,-3.96082 0.913915,-0.91404 0.305064,-2.13275 m -2.437309,-11.27312 0.60885,-1.21872 m -8.8353018,30.46789 -0.3050648,3.04679 0.3050648,0.30468 0,1.82807 m 0.6094796,-10.35908 0.304425,1.82807 0,5.7889 m 0,0 0,-4.57018 -0.304425,2.13275 -0.3050648,-1.52339 0,1.52339 -0.3044148,0 m 2.1328741,-21.32752 -0.9145445,7.92165 0,5.48422 -0.60885,2.74211 m 6.7024278,-11.5778 -0.60885,0 -0.3050648,-3.35147 0.6094898,-3.65614 0.9139044,-1.82808 0,-2.13275 0.305065,-1.52339 m -1.5233944,12.49183 0,1.21872 -0.6094796,2.13275 -1.8284593,2.43743 -0.304425,2.13275 -0.9139046,-3.04679 m 0,0 -0.3050648,8.22634 0.6094796,0.30467 0,1.21872 -1.8278093,7.31229 0,-1.82807 -0.3050648,1.21872 -0.304425,-2.13276 m 1.8278195,-37.78018 -0.60885,4.87486 -0.3050648,3.04679 -0.3044149,2.43743 0.3044149,0 -0.3044149,3.96083 0.6094797,-0.30468 m 5.1790333,4.57018 -0.304425,3.35147 0,0.60936 m -3.3512139,68.55275 -0.3050648,-2.74211 0.3050648,2.74211 m -0.6094796,-2.43743 0,0.30468 0.6094796,2.13275 m -3.0467889,-26.81174 -0.3050648,-0.91404 0.3050648,4.57018 m 4.5701834,23.1556 0,-0.30468 0.304425,-0.91404 0.304425,1.21872 m -6.0935778,-35.95211 0,-1.52339 0.3050648,2.43743 0.3044148,5.48422 0.3050648,2.13275 -0.6094796,-14.31991 -0.3050648,-5.17954 0,-3.35147 0.3050648,-0.30468 m 15.5383598,-89.27091 -2.741725,7.31229 m -7.6169718,28.63982 -1.2189695,6.70293 M 85.033151,78.060125 83.814436,79.58352 m 2.437431,-3.351468 4.874862,-4.265504 -0.914037,0.914036 m 0,0 0.609358,-0.609357 -5.788899,5.788898 m -2.437431,1.523395 0.609358,-0.304679 3.046789,-3.046789" /><text
   xml:space="preserve"
   style="font-size:40px;font-style:normal;font-weight:normal;fill:#000000;fill-opacity:1;stroke:none;font-family:Bitstream Vera Sans"
   x="139.45703"
   y="267.9198"
   id="text2902"><tspan
     sodipodi:role="line"
     x="139.45703"
     y="267.9198"
     style="font-size:8px"
     id="tspan2910">Nachhaltige Informatik</tspan><tspan
     sodipodi:role="line"
     x="139.45703"
     y="275.9263"
     style="font-size:6px"
     id="tspan2914">in Entwicklungslndern</tspan></text>


<flowRoot
   xml:space="preserve"
   id="flowRoot2922"
   style="font-size:40px;font-style:normal;font-weight:normal;fill:#000000;fill-opacity:1;stroke:none;font-family:Bitstream Vera Sans"
   transform="translate(21.78125,-8.78125)"><flowRegion
     id="flowRegion2924"><rect
       id="rect2926"
       width="98.828133"
       height="82.421883"
       x="117.96875"
       y="295.26746" /></flowRegion><flowPara
     id="flowPara2928"
     style="font-size:5px">In Kamerun habe ich viele Eindrcke im Bereich Informatik-Entwicklungshilfe gesammelt.</flowPara><flowPara
     style="font-size:5px"
     id="flowPara2930" /><flowPara
     style="font-size:5px"
     id="flowPara2932">Daraus Entstand ein konkretes Projekt mit dem Ziel den Internet-Zugang fr die lokale Bevlkerung erheblich zu beschleunigen.</flowPara><flowPara
     style="font-size:5px"
     id="flowPara2938" /><flowPara
     style="font-size:5px"
     id="flowPara2936">Ich zeige auf wie sich solche abstrakten technologischen Lsungen mglichst Nachhaltig umsetzten lassen.</flowPara></flowRoot><flowRoot
   xml:space="preserve"
   id="flowRoot2950"
   style="font-size:40px;font-style:normal;font-weight:normal;fill:#000000;fill-opacity:1;stroke:none;font-family:Bitstream Vera Sans"><flowRegion
     id="flowRegion2952"><rect
       id="rect2954"
       width="148.04688"
       height="44.140625"
       x="96.484375"
       y="389.79871" /></flowRegion><flowPara
     id="flowPara2956">PP</flowPara></flowRoot><flowRoot
   xml:space="preserve"
   id="flowRoot2958"
   style="font-size:40px;font-style:normal;font-weight:normal;fill:#000000;fill-opacity:1;stroke:none;font-family:Bitstream Vera Sans"
   transform="translate(87.75,168.26563)"><flowRegion
     id="flowRegion2960"><rect
       id="rect2962"
       width="272.26562"
       height="91.796875"
       x="50.78125"
       y="208.15808" /></flowRegion><flowPara
     id="flowPara2964"
     style="font-size:8px">Vortrag, Demo + Disskusion</flowPara><flowPara
     style="font-size:4px"
     id="flowPara2980"> </flowPara><flowPara
     style="font-size:6px"
     id="flowPara2923">23.11.2010, 19:30 Uhr</flowPara><flowPara
     style="font-size:6px"
     id="flowPara2976"><flowSpan
   style="font-size:5px"
   id="flowSpan2917">im </flowSpan>Cowo21</flowPara><flowPara
     style="font-size:5px"
     id="flowPara2974">Holzhofallee 21, D-64295 Darmstadt</flowPara><flowPara
     style="font-size:5px"
     id="flowPara2984" /><flowPara
     style="font-size:5px"
     id="flowPara2986">Anmeldung: boris_daeppen@bluewin.ch</flowPara><flowPara
     style="font-size:5px"
     id="flowPara2925">Mehr Infos: http://cowo21.de/veranstaltungen/</flowPara><flowPara
     style="font-size:6px"
     id="flowPara2968" /><flowPara
     style="font-size:8px"
     id="flowPara2970">Projekt: http://nayaboh.sourceforge.net</flowPara><flowPara
     style="font-size:8px"
     id="flowPara2966" /></flowRoot><text
   xml:space="preserve"
   style="font-size:40px;font-style:normal;font-weight:normal;fill:#000000;fill-opacity:1;stroke:none;font-family:Bitstream Vera Sans"
   x="248.70312"
   y="245.04871"
   id="text2864"><tspan
     sodipodi:role="line"
     id="tspan2866"
     x="248.70312"
     y="245.04871"
     style="font-size:4px;fill:#ffffff">Urheber Grafik: Martin23230</tspan></text>
</svg>